<svg width="33" height="32" viewBox="0 0 33 32" fill="none" xmlns="http://www.w3.org/2000/svg">
<path d="M26.8791 25.8258L20.1968 19.1027C21.4423 17.611 22.1929 15.6919 22.1929 13.5965C22.1929 8.84881 18.3441 5 13.5965 5C8.84881 5 5 8.84881 5 13.5965C5 18.3441 8.84881 22.1929 13.5965 22.1929C15.7535 22.1929 17.7238 21.3965 19.2333 20.0837L25.9063 26.7986C26.1748 27.0671 26.6105 27.0671 26.8791 26.7986C27.1473 26.53 27.1473 26.0947 26.8791 25.8258H26.8791ZM13.5965 20.8288C9.6022 20.8288 6.36409 17.5907 6.36409 13.5965C6.36409 9.6022 9.6022 6.36409 13.5965 6.36409C17.5907 6.36409 20.8288 9.6022 20.8288 13.5965C20.8288 17.5907 17.5907 20.8288 13.5965 20.8288Z" fill="#3D3D3D"/>
</svg>
